<svg fill="#64dd17" version="1.1" xmlns="http://www.w3.org/2000/svg" x="0px" y="0px" viewBox="0 0 1000 1000"
     enable-background="new 0 0 1000 1000" xml:space="preserve">
    <g>
        <g transform="translate(0.000000,512.000000) scale(0.100000,-0.100000)">
            <path d="M4725,4976.6c-310.4-105.4-526.9-383.2-565.2-726.2l-13.4-111.1h-350.6c-231.8,0-367.9-7.7-400.4-23c-97.7-44.1-105.4-86.2-105.4-609.3v-479l65.1-72.8l65.1-70.9l1546.3-5.8c1383.4-3.8,1552-1.9,1609.5,26.8c115,53.6,124.5,99.6,124.5,620.8c0,488.6-9.6,548-93.9,594c-23,11.5-187.8,19.2-400.4,19.2H5844l-19.2,141.8c-36.4,251-145.6,436.9-337.2,580.6C5273,5018.7,4979.9,5062.8,4725,4976.6z M5108.3,4532c99.6-49.8,155.2-136,155.2-235.7c0-168.6-107.3-272.1-279.7-272.1c-76.6,0-97.7,9.6-162.9,72.8c-80.5,82.4-103.5,145.6-86.2,241.4C4767.2,4509,4960.7,4608.7,5108.3,4532z"/>
            <path d="M1965.9,3796.3c-224.2-70.9-387-235.7-457.9-459.9c-38.3-118.8-38.3-170.5-38.3-3803.4c0-3309,3.8-3694.2,30.7-3788c61.3-206.9,210.8-381.3,408.1-475.2l107.3-49.8h2979.5h2979.5l128.4,61.3c162.9,76.6,289.3,203.1,366,366l61.3,128.4v3755.5v3755.5l-55.6,118.8c-67.1,145.6-216.5,293.1-369.8,366c-105.4,49.8-128.4,51.7-450.3,57.5l-341.1,7.7v-306.6v-308.5l279.7-5.7c251-5.8,281.7-9.6,306.6-44.1c23-30.7,26.8-548,23-3653.9c-5.7-3441.2-7.7-3617.5-40.2-3650.1s-176.3-34.5-2872.2-38.3l-2837.7-1.9l-44.1,44.1l-46,46v3613.7c0,3586.9,0,3611.8,38.3,3650.1c34.5,34.5,63.2,38.3,297,38.3h258.7v306.6v306.6l-300.8-1.9C2140.3,3830.8,2050.2,3823.1,1965.9,3796.3z"/>
            <path d="M3951,2106.3c-228-93.9-632.3-431.1-747.3-624.6l-34.5-59.4l-113.1,93.9c-63.2,51.7-118.8,93.9-126.5,93.9c-38.3,0-99.6-65.1-99.6-105.4c0-47.9,260.6-369.8,325.7-400.5c76.6-34.5,122.6,3.8,264.4,224.2c166.7,258.7,331.5,444.5,540.3,607.4c115,92,153.3,134.1,149.4,162.9C4102.3,2150.4,4064,2152.3,3951,2106.3z"/>
            <path d="M2462.2,1991.3c-32.6-17.2-34.5-69-34.5-638c0-574.8,1.9-620.8,34.5-649.5c30.7-28.7,103.5-32.6,624.6-32.6H3675l46,47.9c47.9,46,47.9,47.9,47.9,423.4c0,431.1,5.7,423.5-153.3,185.9c-92-138-95.8-149.5-95.8-275.9V920.3h-421.5h-421.5v421.5v421.5H2945h268.2l126.5,124.5l128.4,124.6h-486.7C2686.4,2012.4,2481.3,2002.8,2462.2,1991.3z"/>
            <path d="M4497,1935.8c-21.1-21.1-38.3-59.4-38.3-86.2c0-26.8,17.2-65.1,38.3-86.2c38.3-38.3,63.2-38.3,1347-38.3c1456.2,0,1393-5.7,1393,124.6c0,130.3,63.2,124.5-1393,124.5C4560.3,1974.1,4535.4,1974.1,4497,1935.8z"/>
            <path d="M4497,1380.1c-47.9-47.9-49.8-138-3.8-178.2c32.6-28.7,122.6-32.6,910.1-32.6c850.7,0,877.5,1.9,914,38.3c21.1,21.1,38.3,59.4,38.3,86.2c0,26.8-17.3,65.1-38.3,86.2c-36.4,36.4-63.2,38.3-910.1,38.3C4560.3,1418.4,4533.4,1416.5,4497,1380.1z"/>
            <path d="M2504.3,63.8c-72.8-26.8-76.6-53.6-76.6-668.7c0-519.3,3.8-603.6,30.7-628.5c24.9-26.8,111.1-30.7,640-30.7c609.3,0,611.2,0,640,42.2c26.8,36.4,30.7,128.4,30.7,624.6v580.6l-47.9,46l-46,47.9l-571-1.9C2789.8,75.3,2519.7,69.5,2504.3,63.8z M3519.8-591.5v-419.6l-61.3-11.5c-80.5-13.4-682.1-13.4-737.7,1.9c-44.1,9.6-44.1,9.6-44.1,429.2v419.6h421.5h421.5V-591.5z"/>
            <path d="M4491.3-33.9c-44.1-47.9-40.2-124.5,7.7-168.6c38.3-34.5,92-36.4,1299.1-42.2c691.7-3.8,1283.8,0,1318.3,5.7c80.5,15.3,120.7,55.6,120.7,124.6c0,120.7,72.8,115-1387.2,115C4587.1,0.6,4520-1.4,4491.3-33.9z"/>
            <path d="M4491.3-589.6c-34.5-36.4-42.2-113.1-17.3-149.4c40.2-61.3,101.6-65.2,938.9-65.2c822,0,843.1,0,892.9,40.3c59.4,46,67.1,130.3,15.3,176.3c-32.6,28.7-124.5,32.6-917.8,32.6C4573.7-555.1,4520-557,4491.3-589.6z"/>
            <path d="M2460.3-1911.7c-28.7-30.7-32.6-105.4-32.6-641.9c0-603.6,0-605.5,42.2-634.2c36.4-26.8,128.4-30.6,624.6-30.6H3675l46,47.9l47.9,46v586.3c0,559.5-1.9,586.3-38.3,622.7c-36.4,36.4-63.2,38.3-638,38.3C2535-1877.2,2489-1879.1,2460.3-1911.7z M3519.8-2547.8v-421.5h-421.5h-421.5v421.5v421.5h421.5h421.5V-2547.8z"/>
            <path d="M4497-1973c-21.1-21.1-38.3-59.4-38.3-86.2c0-26.8,17.2-65.1,38.3-86.2c38.3-38.3,63.2-38.3,1347-38.3c1456.2,0,1393-5.7,1393,124.5c0,130.3,63.2,124.5-1393,124.5C4560.3-1934.7,4535.4-1934.7,4497-1973z"/>
            <path d="M4497-2528.6c-51.7-51.7-49.8-143.7,3.8-180.1c38.3-26.8,157.1-30.6,910.1-30.6c843.1,0,869.9,1.9,906.3,38.3c21.1,21.1,38.3,59.4,38.3,86.2c0,26.8-17.3,65.2-38.3,86.2c-36.4,36.4-63.2,38.3-910.1,38.3C4560.3-2490.3,4533.4-2492.2,4497-2528.6z"/>
         </g>
    </g>
</svg>